<!--<svg xmlns="http://www.w3.org/2000/svg" width="24" height="24" fill="white" viewBox="0 0 24 24"> <path d="M12 2c3.309 0 6 2.691 6 6v8c0 3.309-2.691 6-6 6s-6-2.691-6-6v-8c0-3.309 2.691-6 6-6zm0-2c-4.418 0-8 3.582-8 8v8c0 4.418 3.582 8 8 8s8-3.582 8-8v-8c0-4.418-3.582-8-8-8zm0 9c-.829 0-1.5-.672-1.5-1.5s.671-1.5 1.5-1.5 1.5.672 1.5 1.5-.671 1.5-1.5 1.5z"/> </svg>-->
<svg xmlns="http://www.w3.org/2000/svg" xmlns:xlink="http://www.w3.org/1999/xlink" width="40px" height="100%" style="fill-rule:evenodd;clip-rule:evenodd;stroke-linecap:round;stroke-linejoin:round;stroke-miterlimit:1.5" version="1.1" viewBox="0 0 247 390">
    <path id="wheel" d="M123.359,89.775l0,52.843" style="fill:none;stroke:rgb(204, 204, 204);stroke-width:25px"/>
    <path id="mouse" d="M236.717,123.359c0,-62.565 -50.794,-113.359 -113.358,-113.359c-62.565,0 -113.359,50.794 -113.359,113.359l0,143.237c0,62.565 50.794,113.359 113.359,113.359c62.564,0 113.358,-50.794 113.358,-113.359l0,-143.237Z" style="fill:none;stroke:rgb(204, 204, 204);stroke-width:25px"/>
</svg>
